# xmcd
# 
# Track frame offsets:
#     150
#     16186
#     32116
#     48092
#     62843
#     82669
#     96738
#     109712
#     128111
#     148182
#     167199
#     182728
#     195980
#     211466
#     228174
#     244178
#     263207
#     284464
#     312235
#     327396
#     342908
# 
# Disc length: 4790
# 
# Revision: 0
# Processed by: cddbd v1.5.2PL0 Copyright (c) Steve Scherf et al.
# Submitted via: fre:ac v1.0.31
# 
DISCID=2f12b415
DTITLE=Various Artist - De Maxx Long Player 21 - disc 1
DYEAR=2011
DGENRE=Electronic
TTITLE0=Chase and Status Feat. Delilah - Time
TTITLE1=De Jeugd Van Tegenwoordig - Get Spansish
TTITLE2=Sak Noel - Loca People
TTITLE3=The Subs Feat. Highbloo - Don't Stop
TTITLE4=Martin Solveig Feat. Kele - Ready 2 Go
TTITLE5=Katy B Vs. Ms. Dynamite - Lights On
TTITLE6=Nero - Guilt
TTITLE7=Rusko - Everyday (Netsky Remix)
TTITLE8=Drumsound and Bassline - Freak Smith
TTITLE9=Dubba Jonny - All In
TTITLE10=Swedish House Mafia - Save The World (Instrumental Radio Mix)
TTITLE11=Stromae - Peace Or Violence
TTITLE12=Digitalism - 2 Hearts
TTITLE13=Robyn - Call Your Girlfriend
TTITLE14=Jamie Woon - Lady Luck
TTITLE15=Polydor - You Better
TTITLE16=Das Pop - The Game (Villa Rework)
TTITLE17=Aeroplane - My Enemy (Rex The Dog Remix)
TTITLE18=Yuksek - On A Train
TTITLE19=Dev Feat. The Cataracs - Bass Down Low
TTITLE20=Calvin Harris Feat. Kelis - Bounce
EXTD=
EXTT0=
EXTT1=
EXTT2=
EXTT3=
EXTT4=
EXTT5=
EXTT6=
EXTT7=
EXTT8=
EXTT9=
EXTT10=
EXTT11=
EXTT12=
EXTT13=
EXTT14=
EXTT15=
EXTT16=
EXTT17=
EXTT18=
EXTT19=
EXTT20=
PLAYORDER=
